<svg viewBox="0 300 200 100" width="150px" height="100px" xmlns="http://www.w3.org/2000/svg">
  <g transform="matrix(0.4, 0, 0, 0.333333, 0, 266.666656)">
    <path d="M 200 100 L 300 200 L 100 200 L 200 100 Z" style="fill: rgba(255, 255, 255, 0); stroke: rgb(18, 77, 117); stroke-linejoin: bevel; stroke-width: 15"/>
    <path d="M -200 -300 L -100 -200 L -300 -200 L -200 -300 Z" style="fill: rgb(18, 77, 117); stroke: rgb(18, 77, 117); stroke-linejoin: bevel; stroke-width: 15" transform="matrix(-1, 0, 0, -1, 0, 0)"/>
    <path d="M -300 200 L -200 300 L -400 300 L -300 200 Z" style="fill: rgba(255, 255, 255, 0); stroke: rgb(18, 77, 117); stroke-linejoin: bevel; stroke-width: 15" transform="matrix(-1, 0, 0, 1, 0, 0)"/>
    <path d="M -100 200 L 0 300 L -200 300 L -100 200 Z" style="fill: rgba(255, 255, 255, 0); stroke: rgb(18, 77, 117); stroke-linejoin: bevel; stroke-width: 15" transform="matrix(-1, 0, 0, 1, 0, 0)"/>
    <path d="M -300 -400 L -200 -300 L -400 -300 L -300 -400 Z" style="fill: rgb(18, 77, 117); stroke: rgb(18, 77, 117); stroke-linejoin: bevel; stroke-width: 15" transform="matrix(-1, 0, 0, -1, 0, 0)"/>
    <path d="M -400 -300 L -300 -200 L -500 -200 L -400 -300 Z" style="fill: rgb(18, 77, 117); stroke: rgb(18, 77, 117); stroke-linejoin: bevel; stroke-width: 15" transform="matrix(-1, 0, 0, -1, 0, 0)"/>
  </g>
</svg>